# Blender 5.1.0
# www.blender.org
mtllib babyZombie.mtl
o Cube
v 0.600000 2.021869 -0.600000
v 0.600000 0.821869 -0.600000
v 0.600000 2.021869 0.600000
v 0.600000 0.821869 0.600000
v -0.600000 2.021869 -0.600000
v -0.600000 0.821869 -0.600000
v -0.600000 2.021869 0.600000
v -0.600000 0.821869 0.600000
v 0.800000 3.600000 -0.800000
v 0.800000 2.000000 -0.800000
v 0.800000 3.600000 0.800000
v 0.800000 2.000000 0.800000
v -0.800000 3.600000 -0.800000
v -0.800000 2.000000 -0.800000
v -0.800000 3.600000 0.800000
v -0.800000 2.000000 0.800000
v 0.200000 0.820000 0.081121
v 0.200000 -0.000000 0.081121
v 0.200000 0.820000 0.481121
v 0.200000 -0.000000 0.481121
v -0.200000 0.820000 0.081121
v -0.200000 -0.000000 0.081121
v -0.200000 0.820000 0.481121
v -0.200000 -0.000000 0.481121
v 0.200000 0.820000 -0.498134
v 0.200000 -0.000000 -0.498134
v 0.200000 0.820000 -0.098134
v 0.200000 -0.000000 -0.098134
v -0.200000 0.820000 -0.498134
v -0.200000 -0.000000 -0.498134
v -0.200000 0.820000 -0.098134
v -0.200000 -0.000000 -0.098134
v 0.200000 2.051113 -0.889016
v 0.200000 1.051113 -0.889016
v 0.200000 2.051113 -0.589016
v 0.200000 1.051113 -0.589016
v -0.200000 2.051113 -0.889016
v -0.200000 1.051113 -0.889016
v -0.200000 2.051113 -0.589016
v -0.200000 1.051113 -0.589016
v 0.200000 2.051113 0.556025
v 0.200000 1.051113 0.556025
v 0.200000 2.051113 0.856025
v 0.200000 1.051113 0.856025
v -0.200000 2.051113 0.556025
v -0.200000 1.051113 0.556025
v -0.200000 2.051113 0.856025
v -0.200000 1.051113 0.856025
vn -0.0000 1.0000 -0.0000
vn -0.0000 -0.0000 1.0000
vn -1.0000 -0.0000 -0.0000
vn -0.0000 -1.0000 -0.0000
vn 1.0000 -0.0000 -0.0000
vn -0.0000 -0.0000 -1.0000
vt 0.753425 0.479452
vt 0.547945 0.273973
vt 0.753425 0.273973
vt 0.479452 0.753425
vt 0.684932 0.547945
vt 0.684932 0.753425
vt 0.684932 0.753425
vt 0.890411 0.547945
vt 0.890411 0.753425
vt 0.273973 0.547945
vt 0.479452 0.547945
vt 0.753425 0.479452
vt 0.958904 0.273973
vt 0.958904 0.479452
vt 0.273973 0.958904
vt 0.479452 0.753425
vt 0.479452 0.958904
vt 0.273973 0.273973
vt 0.000000 0.000000
vt 0.273973 0.000000
vt 0.000000 0.547945
vt 0.273973 0.273973
vt 0.273973 0.547945
vt 0.273973 0.273973
vt 0.547945 0.000000
vt 0.547945 0.273973
vt 0.547945 0.547945
vt 0.273973 0.273973
vt -0.000000 0.821918
vt 0.273973 0.547945
vt 0.273973 0.821918
vt 0.547945 0.273973
vt 0.821918 0.000000
vt 0.821918 0.273973
vt 0.616438 0.547945
vt 0.547945 0.479452
vt 0.616438 0.479452
vt 0.753425 0.893836
vt 0.684932 0.893836
vt 0.753425 0.753425
vt 0.821918 0.893836
vt 0.753425 0.893836
vt 0.684932 0.479452
vt 0.821918 0.753425
vt 0.890411 0.893836
vt 0.821918 0.893836
vt 0.890411 0.000000
vt 0.958904 0.140411
vt 0.890411 0.140411
vt 0.684931 0.547945
vt 0.753425 0.547945
vt 0.890411 0.547945
vt 0.958904 0.688356
vt 0.890411 0.688356
vt 0.890411 0.688356
vt 0.958904 0.828767
vt 0.890411 0.828767
vt 0.753425 0.547945
vt 0.821918 0.479452
vt 0.821918 0.547945
vt 0.000000 0.821918
vt 0.068493 0.962329
vt 0.000000 0.962329
vt 0.068493 0.821918
vt 0.136986 0.962329
vt 0.068493 0.962329
vt 0.873288 0.239726
vt 0.821918 0.171233
vt 0.873288 0.171233
vt 0.821918 0.000000
vt 0.890411 0.171233
vt 0.821918 0.171233
vt 0.136986 0.821918
vt 0.188356 0.993151
vt 0.136986 0.993151
vt 0.873288 0.547945
vt 0.821918 0.479452
vt 0.873288 0.479452
vt 0.188356 0.821918
vt 0.239726 0.993151
vt 0.479452 0.753425
vt 0.547945 0.924658
vt 0.479452 0.924658
vt 0.924658 0.239726
vt 0.873288 0.171233
vt 0.924658 0.171233
vt 0.547945 0.753425
vt 0.616438 0.924658
vt 0.890411 0.828767
vt 0.941781 1.000000
vt 0.890411 1.000000
vt 0.924657 0.547945
vt 0.873288 0.479452
vt 0.924657 0.479452
vt 0.941781 0.828767
vt 0.993151 1.000000
vt 0.941781 1.000000
vt 0.616438 0.753425
vt 0.684932 0.924658
vt 0.616438 0.924658
vt 0.547945 0.479452
vt 0.684932 0.547945
vt 0.273973 0.753425
vt 0.753425 0.273973
vt 0.273973 0.753425
vt 0.000000 0.273973
vt 0.000000 0.273973
vt 0.273973 -0.000000
vt 0.000000 0.547945
vt 0.547945 0.000000
vt 0.547945 0.547945
vt 0.753425 0.753425
vt 0.821918 0.753425
vt 0.890411 0.753425
vt 0.958904 0.000000
vt 0.684931 0.479452
vt 0.958904 0.547945
vt 0.753425 0.479452
vt 0.068493 0.821918
vt 0.821918 0.239726
vt 0.821918 0.547945
vt 0.239726 0.821918
vt 0.873288 0.239726
vt 0.616438 0.753425
vt 0.941781 0.828767
vt 0.873288 0.547945
vt 0.993151 0.828767
vt 0.684932 0.753425
s 0
usemtl Material
f 5/1/1 3/2/1 1/3/1
f 3/4/2 8/5/2 4/6/2
f 7/7/3 6/8/3 8/9/3
f 2/4/4 8/10/4 6/11/4
f 1/12/5 4/13/5 2/14/5
f 5/15/6 2/16/6 6/17/6
f 5/1/1 7/101/1 3/2/1
f 3/4/2 7/11/2 8/5/2
f 7/7/3 5/102/3 6/8/3
f 2/4/4 4/103/4 8/10/4
f 1/12/5 3/104/5 4/13/5
f 5/15/6 1/105/6 2/16/6
usemtl Material.001
f 13/18/1 11/19/1 9/20/1
f 11/21/2 16/22/2 12/23/2
f 15/24/3 14/25/3 16/26/3
f 10/27/4 16/28/4 14/2/4
f 9/29/5 12/30/5 10/31/5
f 13/32/6 10/33/6 14/34/6
f 13/18/1 15/106/1 11/19/1
f 11/21/2 15/107/2 16/22/2
f 15/24/3 13/108/3 14/25/3
f 10/27/4 12/23/4 16/28/4
f 9/29/5 11/109/5 12/30/5
f 13/32/6 9/110/6 10/33/6
usemtl Material.002
f 21/35/1 19/36/1 17/37/1
f 19/6/2 24/38/2 20/39/2
f 23/40/3 22/41/3 24/42/3
f 18/5/4 24/37/4 22/43/4
f 17/44/5 20/45/5 18/46/5
f 21/47/6 18/48/6 22/49/6
f 21/35/1 23/111/1 19/36/1
f 19/6/2 23/112/2 24/38/2
f 23/40/3 21/113/3 22/41/3
f 18/5/4 20/35/4 24/37/4
f 17/44/5 19/114/5 20/45/5
f 21/47/6 17/115/6 18/48/6
usemtl Material.003
f 29/50/1 27/1/1 25/51/1
f 27/52/2 32/53/2 28/54/2
f 31/55/3 30/56/3 32/57/3
f 26/58/4 32/59/4 30/60/4
f 25/61/5 28/62/5 26/63/5
f 29/64/6 26/65/6 30/66/6
f 29/50/1 31/116/1 27/1/1
f 27/52/2 31/117/2 32/53/2
f 31/55/3 29/53/3 30/56/3
f 26/58/4 28/118/4 32/59/4
f 25/61/5 27/119/5 28/62/5
f 29/64/6 25/73/6 26/65/6
usemtl Material.004
f 37/67/1 35/68/1 33/69/1
f 35/70/2 40/71/2 36/72/2
f 39/73/3 38/74/3 40/75/3
f 34/76/4 40/77/4 38/78/4
f 33/79/5 36/80/5 34/74/5
f 37/81/6 34/82/6 38/83/6
f 37/67/1 39/120/1 35/68/1
f 35/70/2 39/47/2 40/71/2
f 39/73/3 37/79/3 38/74/3
f 34/76/4 36/121/4 40/77/4
f 33/79/5 35/122/5 36/80/5
f 37/81/6 33/87/6 34/82/6
usemtl Material.006
f 45/84/1 43/85/1 41/86/1
f 43/87/2 48/88/2 44/82/2
f 47/89/3 46/90/3 48/91/3
f 42/92/4 48/93/4 46/94/4
f 41/95/5 44/96/5 42/97/5
f 45/98/6 42/99/6 46/100/6
f 45/84/1 47/123/1 43/85/1
f 43/87/2 47/124/2 48/88/2
f 47/89/3 45/125/3 46/90/3
f 42/92/4 44/126/4 48/93/4
f 41/95/5 43/127/5 44/96/5
f 45/98/6 41/128/6 42/99/6
