# Blender 5.1.0
# www.blender.org
mtllib BigRock2.mtl
o BigRock2
v -3.338155 -0.201807 0.022126
v -1.614962 3.722510 1.448929
v -0.864614 -0.116871 -2.764856
v -2.764336 5.061871 -1.851154
v 1.433820 0.270754 3.437116
v 0.114027 3.530912 1.745608
v 2.972776 0.115338 0.056874
v 0.886404 3.630446 -0.866531
v -3.307980 0.748199 -0.073726
v -3.000351 2.306274 1.299474
v -2.817235 3.165071 -2.354879
v -1.052436 0.969312 -2.840049
v 1.827906 2.219354 -0.833746
v 2.740336 0.995959 -0.300581
v 0.767640 2.257040 2.960184
v 1.088055 1.044271 3.591167
v 1.464593 -0.002512 -2.344615
v -1.081819 4.721031 -1.494764
v -1.161118 0.189833 2.705707
v -0.730807 3.946409 1.613018
v -1.656762 1.060568 2.747164
v -1.977598 2.512283 2.166054
v 1.117528 0.964647 -2.629802
v 0.231806 2.405618 -1.791326
v -3.332877 -0.409710 -2.519147
v -2.625218 4.489439 -0.399349
v 2.760565 0.069353 1.696463
v 0.810558 3.923153 0.166999
v 2.456291 0.951662 1.255745
v 1.463648 2.309577 0.431825
v -3.256449 0.770810 -2.618016
v -3.424715 2.792446 -1.840807
v -0.038244 4.519697 -0.017745
v 0.065010 0.085622 -0.289669
vn -0.9811 0.1906 -0.0328
vn -0.8644 0.4517 -0.2210
vn -0.6895 0.6294 -0.3585
vn 0.4870 0.3454 -0.8022
vn 0.4850 0.3469 -0.8028
vn 0.5142 0.3246 -0.7939
vn 0.7924 0.5005 0.3487
vn 0.7870 0.5299 0.3159
vn 0.7645 0.6049 0.2230
vn -0.5418 0.5427 0.6419
vn -0.3808 0.5532 0.7410
vn -0.6073 0.5318 0.5903
vn -0.0150 -0.9984 0.0551
vn -0.0207 -0.9981 0.0572
vn 0.0191 -0.9989 0.0426
vn -0.1341 0.9240 0.3581
vn -0.1599 0.9292 0.3332
vn -0.2767 0.9373 0.2120
vn -0.7210 -0.3414 0.6030
vn -0.8479 -0.0145 0.5299
vn -0.6764 -0.4140 0.6091
vn -0.7663 -0.0866 0.6366
vn -0.7880 -0.1587 0.5948
vn -0.8126 -0.2868 0.5074
vn 0.7493 0.4452 0.4902
vn 0.8141 0.3232 0.4825
vn 0.7186 0.4929 0.4907
vn 0.7502 0.5957 0.2870
vn 0.7713 0.5216 0.3647
vn 0.7836 0.4369 0.4418
vn 0.8203 0.1033 -0.5625
vn 0.8413 0.0299 -0.5397
vn 0.8467 0.0075 -0.5321
vn 0.5921 0.5316 -0.6056
vn 0.6683 0.4593 -0.5852
vn 0.7699 0.3385 -0.5410
vn -0.0904 -0.0792 -0.9928
vn -0.0915 -0.0824 -0.9924
vn -0.0897 -0.0774 -0.9930
vn -0.2487 0.1508 -0.9568
vn -0.4673 0.1808 -0.8654
vn -0.1109 0.1286 -0.9855
vn 0.1920 0.4609 -0.8664
vn 0.1713 0.4765 -0.8623
vn 0.0824 0.5386 -0.8385
vn 0.1203 -0.0970 -0.9880
vn 0.1616 -0.1749 -0.9712
vn 0.1836 -0.2168 -0.9588
vn -0.2597 0.3672 0.8931
vn -0.2454 0.3352 0.9096
vn -0.2688 0.3877 0.8817
vn -0.2578 -0.2798 0.9248
vn -0.2827 -0.2228 0.9330
vn -0.2506 -0.2956 0.9218
vn 0.4278 0.8037 0.4137
vn 0.3818 0.8198 0.4267
vn 0.4665 0.7881 0.4016
vn 0.0908 -0.9930 0.0753
vn 0.0910 -0.9928 0.0775
vn 0.0913 -0.9925 0.0814
vn -0.0893 0.5311 0.8426
vn -0.0950 0.5402 0.8361
vn -0.1588 0.6374 0.7540
vn 0.2417 0.2489 -0.9379
vn 0.2412 0.2495 -0.9379
vn 0.2367 0.2544 -0.9377
vn 0.0909 -0.9947 0.0472
vn 0.0703 -0.9960 0.0551
vn 0.1212 -0.9920 0.0356
vn 0.5593 0.7975 -0.2262
vn 0.5518 0.7997 -0.2366
vn 0.5915 0.7861 -0.1792
vn -0.9964 0.0151 0.0833
vn -0.9988 -0.0184 0.0447
vn -0.9970 -0.0750 -0.0209
vn -0.9992 0.0398 -0.0087
vn -0.9983 0.0557 -0.0162
vn -0.9995 0.0313 -0.0046
vn 0.7512 0.6400 0.1617
vn 0.7515 0.6391 0.1637
vn 0.7503 0.6426 0.1552
vn 0.9265 0.3395 0.1623
vn 0.9213 0.3607 0.1453
vn 0.9158 0.3803 0.1292
vn 0.0186 0.9726 0.2318
vn 0.0504 0.9604 0.2740
vn -0.0350 0.9866 0.1592
vn 0.0102 -0.9999 -0.0000
vn 0.0075 -0.9997 0.0228
vn 0.0047 -0.9989 0.0461
vn 0.8937 0.4453 0.0557
vn 0.8650 0.4889 0.1128
vn 0.8137 0.5475 0.1952
vn -0.8004 0.4478 0.3987
vn -0.8532 0.4037 0.3304
vn -0.9395 0.2959 0.1728
vn -0.9954 0.0022 0.0962
vn 0.4605 0.3649 -0.8092
vn 0.7990 0.3975 0.4513
vn -0.2850 0.5504 0.7847
vn -0.0582 -0.9958 0.0708
vn -0.0719 0.9067 0.4155
vn -0.8641 0.0776 0.4972
vn -0.6566 0.1507 0.7391
vn 0.8337 0.2776 0.4774
vn 0.7229 0.6574 0.2127
vn 0.8133 0.1243 -0.5683
vn 0.4491 0.6393 -0.6242
vn -0.0923 -0.0846 -0.9921
vn -0.7023 0.2038 -0.6821
vn 0.2627 0.4047 -0.8759
vn 0.0962 -0.0522 -0.9940
vn -0.2365 0.3156 0.9190
vn -0.2886 -0.2087 0.9344
vn 0.3407 0.8323 0.4373
vn 0.0905 -0.9933 0.0716
vn 0.0215 0.3434 0.9390
vn 0.2478 0.2422 -0.9381
vn 0.0367 -0.9970 0.0678
vn 0.5307 0.8050 -0.2652
vn -0.9872 0.0681 0.1439
vn -0.9978 0.0630 -0.0196
vn 0.7525 0.6359 0.1713
vn 0.9309 0.3184 0.1790
vn 0.1128 0.9280 0.3551
vn 0.0134 -0.9996 -0.0263
vn 0.9284 0.3698 -0.0366
vn -0.6189 0.5458 0.5648
s 1
usemtl Rock
f 26//1 11//2 32//3
f 24//4 8//5 13//6
f 30//7 6//8 15//9
f 22//10 2//11 10//12
f 34//13 5//14 19//15
f 33//16 2//17 20//18
f 21//19 1//20 19//21
f 21//22 10//23 9//24
f 29//25 5//26 27//27
f 29//28 15//29 16//30
f 17//31 14//32 7//33
f 23//34 13//35 14//36
f 31//37 3//38 25//39
f 31//40 11//41 12//42
f 12//43 24//44 23//45
f 3//46 23//47 17//48
f 15//49 21//50 16//51
f 16//52 19//53 5//54
f 33//55 6//56 28//57
f 34//58 1//59 25//60
f 6//61 22//62 15//63
f 11//64 18//65 24//66
f 3//67 34//68 25//69
f 8//70 33//71 28//72
f 9//73 32//74 31//75
f 9//76 25//77 1//78
f 14//79 30//80 29//81
f 7//82 29//83 27//84
f 18//85 26//86 33//87
f 7//88 34//89 17//90
f 8//91 30//92 13//93
f 10//94 26//95 32//96
f 26//1 4//97 11//2
f 24//4 18//98 8//5
f 30//7 28//99 6//8
f 22//10 20//100 2//11
f 34//13 27//101 5//14
f 33//16 26//102 2//17
f 21//19 9//103 1//20
f 21//22 22//104 10//23
f 29//25 16//105 5//26
f 29//28 30//106 15//29
f 17//31 23//107 14//32
f 23//34 24//108 13//35
f 31//37 12//109 3//38
f 31//40 32//110 11//41
f 12//43 11//111 24//44
f 3//46 12//112 23//47
f 15//49 22//113 21//50
f 16//52 21//114 19//53
f 33//55 20//115 6//56
f 34//58 19//116 1//59
f 6//61 20//117 22//62
f 11//64 4//118 18//65
f 3//67 17//119 34//68
f 8//70 18//120 33//71
f 9//73 10//121 32//74
f 9//76 31//122 25//77
f 14//79 13//123 30//80
f 7//82 14//124 29//83
f 18//85 4//125 26//86
f 7//88 27//126 34//89
f 8//91 28//127 30//92
f 10//94 2//128 26//95
