# Blender 5.1.0
# www.blender.org
mtllib DeadOak2.mtl
o DeadOak2
v -0.244893 0.000000 0.244893
v -0.127626 1.052027 0.091881
v -0.244893 0.000000 -0.244893
v -0.240698 1.052027 -0.276443
v 0.244893 0.000000 0.244893
v 0.240698 1.052027 -0.021191
v 0.244893 0.000000 -0.244893
v 0.127626 1.052027 -0.389515
v -0.035346 2.641453 0.174590
v -0.174590 2.641453 -0.035346
v 0.035346 2.641453 -0.174590
v 0.174590 2.641453 0.035346
v 0.013175 5.112870 0.109448
v -0.109448 5.112870 0.013175
v -0.013175 5.112870 -0.109448
v 0.109448 5.112870 -0.013175
v 0.039208 6.647171 0.048501
v -0.048501 6.647171 0.039208
v -0.039208 6.647171 -0.048501
v 0.048501 6.647171 -0.039208
v 0.027522 2.905461 -0.164086
v 0.164086 2.905461 0.027522
v -0.027522 2.905461 0.164086
v -0.164086 2.905461 -0.027522
v -0.870993 3.170123 0.776825
v -0.950777 3.171051 0.665437
v -0.865504 3.274479 0.613465
v -0.788481 3.270687 0.715598
v -1.426445 3.971198 1.228184
v -1.479450 3.971814 1.154181
v -1.422798 4.040528 1.119654
v -1.371627 4.038009 1.187507
v 0.007174 4.009165 -0.136767
v -0.007174 4.009165 0.136767
v 0.136767 4.009165 0.007174
v -0.136767 4.009165 -0.007174
v 0.002018 4.257944 -0.129845
v -0.002018 4.257944 0.129845
v 0.129845 4.257944 0.002018
v -0.129845 4.257944 -0.002018
v 0.424994 4.527256 -0.785754
v 0.503204 4.465410 -0.852866
v 0.438201 4.462261 -0.920022
v 0.362239 4.521486 -0.848135
v 0.702857 5.230215 -1.135174
v 0.746575 5.195643 -1.172689
v 0.710239 5.193883 -1.210228
v 0.667778 5.226989 -1.170044
v -0.008251 4.962677 -0.116058
v 0.008251 4.962677 0.116058
v 0.116058 4.962677 -0.008251
v -0.116058 4.962677 0.008251
v 0.550488 5.303717 0.413985
v 0.515433 5.308184 0.467989
v 0.564488 5.234102 0.510036
v 0.603640 5.231552 0.454353
v 0.784325 5.795686 0.722863
v 0.760194 5.798761 0.760039
v 0.793962 5.747764 0.788983
v 0.820915 5.746008 0.750652
v 0.157521 3.170698 0.022632
v -0.157521 3.170698 -0.022632
v 0.022632 3.170698 -0.157521
v -0.022632 3.170698 0.157521
v -0.510556 3.314419 -0.603103
v -0.513824 3.182391 -0.605538
v -0.418447 3.182391 -0.673515
v -0.420881 3.314419 -0.670247
v -0.806668 3.831736 -1.067988
v -0.843182 3.799674 -1.104578
v -0.807183 3.805063 -1.144378
v -0.772809 3.837893 -1.106421
vn -0.9753 0.0391 0.2174
vn -0.9938 0.0900 0.0648
vn -0.9938 0.1108 -0.0000
vn -0.0653 -0.1132 -0.9914
vn -0.2162 -0.0574 -0.9747
vn -0.0000 -0.1362 -0.9907
vn 0.9979 0.0171 -0.0619
vn 0.9738 0.0510 -0.2215
vn 1.0000 0.0040 -0.0000
vn 0.0633 0.1655 0.9842
vn 0.2138 0.2143 0.9531
vn -0.0000 0.1439 0.9896
vn -0.0000 -1.0000 -0.0000
vn 0.3208 -0.0273 0.9467
vn 0.5161 -0.0678 0.8538
vn 0.5512 -0.0752 0.8310
vn 0.6358 0.0300 -0.7712
vn 0.6374 0.0280 -0.7700
vn 0.6552 0.0041 -0.7555
vn -0.3180 0.1155 -0.9410
vn -0.5133 0.1434 -0.8461
vn -0.2916 0.1115 -0.9500
vn 0.9434 0.0911 -0.3189
vn 0.8538 0.0604 -0.5170
vn 0.8321 0.0542 -0.5519
vn -0.9476 -0.0024 0.3195
vn -0.8546 0.0163 0.5191
vn -0.9560 -0.0048 0.2935
vn 0.6020 0.0124 -0.7984
vn 0.1385 0.0397 -0.9896
vn 0.6175 0.0112 -0.7865
vn -0.6358 0.0300 0.7712
vn -0.6374 0.0280 0.7700
vn -0.6552 0.0041 0.7555
vn 0.2809 -0.9283 0.2434
vn 0.2822 -0.9285 0.2414
vn 0.2824 -0.9285 0.2411
vn -0.7712 0.0300 -0.6358
vn -0.7700 0.0280 -0.6374
vn -0.7555 0.0041 -0.6552
vn -0.0000 1.0000 -0.0000
vn -0.6020 0.0124 0.7984
vn -0.1385 0.0397 0.9896
vn -0.6175 0.0112 0.7865
vn 0.7984 0.0124 0.6020
vn 0.9896 0.0397 0.1385
vn 0.7865 0.0112 0.6175
vn -0.7984 0.0124 -0.6020
vn -0.9896 0.0397 -0.1385
vn -0.7865 0.0112 -0.6175
vn -0.5654 0.0309 -0.8243
vn -0.5668 0.0325 -0.8232
vn -0.5527 0.0168 -0.8332
vn 0.5654 0.0309 0.8243
vn 0.5668 0.0325 0.8232
vn 0.5527 0.0168 0.8332
vn 0.2974 0.9313 -0.2102
vn 0.3042 0.9318 -0.1979
vn 0.3054 0.9319 -0.1957
vn 0.8243 0.0309 -0.5654
vn 0.8232 0.0325 -0.5668
vn 0.8332 0.0168 -0.5527
vn -0.6095 -0.6654 0.4310
vn -0.6497 0.0538 -0.7583
vn -0.6333 0.1193 -0.7647
vn -0.6292 0.1340 -0.7656
vn 0.5906 0.0142 0.8068
vn 0.5896 0.0094 0.8076
vn 0.5907 0.0146 0.8068
vn -0.3795 -0.8901 0.2526
vn -0.3754 -0.8897 0.2598
vn -0.3798 -0.8901 0.2519
vn -0.5659 0.7033 0.4303
vn -0.5639 0.7044 0.4310
vn -0.5830 0.6934 0.4234
vn 0.5837 0.6984 -0.4143
vn -0.5972 0.0920 -0.7968
vn 0.6121 -0.0210 0.7905
vn -0.6097 0.0119 -0.7925
vn -0.6577 0.0267 -0.7528
vn -0.5993 0.0088 -0.8005
vn 0.6097 0.0119 0.7925
vn 0.6577 0.0267 0.7528
vn 0.5993 0.0088 0.8005
vn -0.7925 0.0119 0.6097
vn -0.7528 0.0267 0.6577
vn -0.8005 0.0088 0.5993
vn 0.7925 0.0119 -0.6097
vn 0.7528 0.0267 -0.6577
vn 0.8005 0.0088 -0.5993
vn -0.6800 0.0179 -0.7330
vn -0.6847 0.0227 -0.7285
vn -0.6691 0.0068 -0.7432
vn 0.6800 0.0179 0.7330
vn 0.6847 0.0227 0.7285
vn 0.6691 0.0068 0.7432
vn -0.7330 0.0179 0.6800
vn -0.7285 0.0227 0.6847
vn -0.7432 0.0068 0.6691
vn -0.2423 0.9424 0.2307
vn -0.2808 0.9378 0.2040
vn -0.2856 0.9371 0.2006
vn 0.6427 -0.4768 -0.5997
vn 0.9226 0.0679 0.3797
vn 0.7835 0.3499 0.5134
vn 0.9321 0.0334 0.3606
vn 0.3527 -0.8805 -0.3167
vn 0.3612 -0.8794 -0.3101
vn 0.3522 -0.8806 -0.3171
vn -0.8849 -0.0320 -0.4647
vn -0.7841 -0.2472 -0.5693
vn -0.7654 -0.2764 -0.5811
vn 0.3335 0.8610 -0.3840
vn 0.3259 0.8631 -0.3857
vn 0.3509 0.8559 -0.3798
vn -0.6973 -0.0249 -0.7163
vn 0.6874 0.0867 0.7211
vn -0.6212 0.5317 0.5757
vn -0.7050 0.0069 -0.7091
vn -0.7461 0.0211 -0.6655
vn -0.6960 0.0039 -0.7180
vn 0.7050 0.0069 0.7091
vn 0.7461 0.0211 0.6655
vn 0.6960 0.0039 0.7180
vn -0.7091 0.0069 0.7050
vn -0.6655 0.0211 0.7461
vn -0.7180 0.0039 0.6960
vn 0.7091 0.0069 -0.7050
vn 0.6655 0.0211 -0.7461
vn 0.7180 0.0039 -0.6960
vn 0.6952 0.1151 -0.7096
vn -0.2333 0.9544 -0.1864
vn -0.2173 0.9525 -0.2134
vn -0.2346 0.9545 -0.1842
vn 0.6912 0.0141 -0.7225
vn 0.6680 0.0667 -0.7412
vn 0.6647 0.0737 -0.7434
vn -0.5944 0.0553 0.8023
vn -0.5960 0.0591 0.8008
vn -0.5942 0.0548 0.8025
vn 0.6365 0.6624 0.3951
vn 0.6390 0.6676 0.3820
vn 0.6325 0.6542 0.4148
vn -0.6462 0.6018 -0.4693
vn 0.6633 -0.5636 0.4922
vn -0.7060 -0.0674 0.7049
vn -0.7060 -0.0674 0.7050
vn 0.8080 0.0185 -0.5888
vn 0.8068 0.0203 -0.5905
vn 0.8143 0.0095 -0.5804
vn -0.8080 0.0185 0.5888
vn -0.8068 0.0203 0.5905
vn -0.8143 0.0095 0.5804
vn 0.5888 0.0185 0.8080
vn 0.5905 0.0203 0.8068
vn 0.5804 0.0095 0.8143
vn -0.2207 -0.9249 -0.3096
vn 0.7888 0.0276 -0.6141
vn 0.7593 -0.0304 -0.6501
vn 0.7561 -0.0362 -0.6534
vn 0.7601 0.0301 -0.6491
vn -0.8531 0.0115 0.5217
vn 0.1246 0.9782 0.1664
vn -0.4625 0.8376 -0.2907
vn -0.4628 0.8384 -0.2880
vn -0.4608 0.8339 -0.3039
vn -0.8268 0.0144 0.5624
vn -0.7659 0.1264 0.6304
vn -0.8287 0.0102 0.5596
vn 0.4125 0.7283 0.5472
vn 0.4470 0.7304 0.5164
vn 0.4108 0.7282 0.5486
vn -0.4196 -0.6958 -0.5829
vn -0.4755 -0.6996 -0.5333
vn -0.4801 -0.6998 -0.5290
vn -0.9559 0.0126 0.2935
vn -0.2934 -0.0275 -0.9556
vn 0.9539 0.0661 -0.2928
vn 0.2852 0.2361 0.9289
vn 0.2934 -0.0218 0.9557
vn 0.6166 0.0548 -0.7854
vn -0.5467 0.1478 -0.8242
vn 0.9517 0.0948 -0.2922
vn -0.8332 0.0196 0.5526
vn 0.1053 0.0413 -0.9936
vn -0.6166 0.0548 0.7854
vn 0.2808 -0.9283 0.2436
vn -0.7854 0.0548 -0.6166
vn -0.1053 0.0413 0.9936
vn 0.9936 0.0413 0.1053
vn -0.9936 0.0413 -0.1053
vn -0.5797 0.0472 -0.8134
vn 0.5797 0.0472 0.8134
vn 0.2967 0.9313 -0.2115
vn 0.8134 0.0472 -0.5797
vn -0.6510 0.0483 -0.7576
vn 0.5894 0.0082 0.8078
vn -0.3747 -0.8896 0.2610
vn -0.5457 0.7144 0.4380
vn -0.6688 0.0302 -0.7428
vn 0.6688 0.0302 0.7428
vn -0.7428 0.0302 0.6688
vn 0.7428 0.0302 -0.6688
vn -0.6956 0.0342 -0.7176
vn 0.6956 0.0342 0.7176
vn -0.7176 0.0342 0.6956
vn -0.2398 0.9426 0.2324
vn 0.7573 0.3856 0.5272
vn 0.3622 -0.8793 -0.3093
vn -0.8930 -0.0060 -0.4500
vn 0.3077 0.8679 -0.3899
vn -0.7552 0.0243 -0.6550
vn 0.7552 0.0243 0.6550
vn -0.6550 0.0243 0.7552
vn 0.6550 0.0243 -0.7552
vn -0.2146 0.9521 -0.2180
vn 0.6941 0.0070 -0.7198
vn -0.5962 0.0596 0.8006
vn 0.6427 0.6755 0.3613
vn 0.8001 0.0296 -0.5991
vn -0.8001 0.0296 0.5991
vn 0.5991 0.0296 0.8001
vn 0.7898 0.0297 -0.6127
vn -0.4645 0.8420 -0.2743
vn -0.7588 0.1377 0.6366
vn 0.4501 0.7305 0.5136
vn -0.4170 -0.6955 -0.5851
s 1
usemtl DeadOakTreeTrunk.001
f 2//1 3//2 1//3
f 3//4 8//5 7//6
f 7//7 6//8 5//9
f 5//10 2//11 1//12
f 7//13 1//13 3//13
f 2//14 12//15 9//16
f 49//17 16//18 51//19
f 4//20 11//21 8//22
f 6//23 11//24 12//25
f 2//26 10//27 4//28
f 15//29 20//30 16//31
f 50//32 14//33 52//34
f 50//35 56//36 55//37
f 52//38 15//39 49//40
f 18//41 20//41 19//41
f 13//42 18//43 14//44
f 16//45 17//46 13//47
f 14//48 19//49 15//50
f 10//51 21//52 11//53
f 12//54 23//55 9//56
f 23//57 27//58 28//59
f 11//60 22//61 12//62
f 25//63 30//63 26//63
f 24//64 26//65 27//66
f 23//67 25//68 9//69
f 9//70 26//71 10//72
f 29//73 31//74 30//75
f 28//76 31//76 32//76
f 27//77 30//77 31//77
f 28//78 29//78 25//78
f 62//79 33//80 63//81
f 61//82 34//83 64//84
f 64//85 36//86 62//87
f 63//88 35//89 61//90
f 36//91 37//92 33//93
f 35//94 38//95 34//96
f 34//97 40//98 36//99
f 37//100 41//101 44//102
f 43//103 46//103 42//103
f 35//104 41//105 39//106
f 33//107 42//108 35//109
f 33//110 44//111 43//112
f 47//113 45//114 46//115
f 43//116 48//116 47//116
f 41//117 46//117 45//117
f 41//118 48//118 44//118
f 40//119 49//120 37//121
f 39//122 50//123 38//124
f 38//125 52//126 40//127
f 37//128 51//129 39//130
f 53//131 60//131 56//131
f 13//132 53//133 16//134
f 51//135 53//136 56//137
f 50//138 54//139 13//140
f 60//141 58//142 59//143
f 54//144 57//144 53//144
f 55//145 60//145 59//145
f 54//146 59//147 58//147
f 21//148 61//149 22//150
f 23//151 62//152 24//153
f 22//154 64//155 23//156
f 24//157 67//157 21//157
f 68//158 71//159 72//160
f 63//161 67//161 68//161
f 62//162 66//162 24//162
f 63//163 65//163 62//163
f 70//164 72//165 71//166
f 65//167 70//168 66//169
f 68//170 69//171 65//172
f 67//173 70//174 71//175
f 2//1 4//176 3//2
f 3//4 4//177 8//5
f 7//7 8//178 6//8
f 5//10 6//179 2//11
f 7//13 5//13 1//13
f 2//14 6//180 12//15
f 49//17 15//181 16//18
f 4//20 10//182 11//21
f 6//23 8//183 11//24
f 2//26 9//184 10//27
f 15//29 19//185 20//30
f 50//32 13//186 14//33
f 50//35 51//187 56//36
f 52//38 14//188 15//39
f 18//41 17//41 20//41
f 13//42 17//189 18//43
f 16//45 20//190 17//46
f 14//48 18//191 19//49
f 10//51 24//192 21//52
f 12//54 22//193 23//55
f 23//57 24//194 27//58
f 11//60 21//195 22//61
f 25//63 29//63 30//63
f 24//64 10//196 26//65
f 23//67 28//197 25//68
f 9//70 25//198 26//71
f 29//73 32//199 31//74
f 28//76 27//76 31//76
f 27//77 26//77 30//77
f 28//78 32//78 29//78
f 62//79 36//200 33//80
f 61//82 35//201 34//83
f 64//85 34//202 36//86
f 63//88 33//203 35//89
f 36//91 40//204 37//92
f 35//94 39//205 38//95
f 34//97 38//206 40//98
f 37//100 39//207 41//101
f 43//103 47//103 46//103
f 35//104 42//208 41//105
f 33//107 43//209 42//108
f 33//110 37//210 44//111
f 47//113 48//211 45//114
f 43//116 44//116 48//116
f 41//117 42//117 46//117
f 41//118 45//118 48//118
f 40//119 52//212 49//120
f 39//122 51//213 50//123
f 38//125 50//214 52//126
f 37//128 49//215 51//129
f 53//131 57//131 60//131
f 13//132 54//216 53//133
f 51//135 16//217 53//136
f 50//138 55//218 54//139
f 60//141 57//219 58//142
f 54//144 58//144 57//144
f 55//145 56//145 60//145
f 54//146 55//146 59//147
f 21//148 63//220 61//149
f 23//151 64//221 62//152
f 22//154 61//222 64//155
f 24//157 66//157 67//157
f 68//158 67//223 71//159
f 63//161 21//161 67//161
f 62//162 65//162 66//162
f 63//163 68//163 65//163
f 70//164 69//224 72//165
f 65//167 69//225 70//168
f 68//170 72//226 69//171
f 67//173 66//227 70//174
