# Blender 5.0.1
# www.blender.org
mtllib healthpotion1.mtl
o Icosphere
v 0.000000 -1.000000 0.000000
v 0.723607 -0.447220 0.525725
v -0.276388 -0.447220 0.850649
v -0.894426 -0.447216 0.000000
v -0.276388 -0.447220 -0.850649
v 0.723607 -0.447220 -0.525725
v 0.276388 0.447220 0.850649
v -0.723607 0.447220 0.525725
v -0.723607 0.447220 -0.525725
v 0.276388 0.447220 -0.850649
v 0.894426 0.447216 0.000000
v -0.162456 -0.850654 0.499995
v 0.425323 -0.850654 0.309011
v 0.262869 -0.525738 0.809012
v 0.850648 -0.525736 0.000000
v 0.425323 -0.850654 -0.309011
v -0.525730 -0.850652 0.000000
v -0.688189 -0.525736 0.499997
v -0.162456 -0.850654 -0.499995
v -0.688189 -0.525736 -0.499997
v 0.262869 -0.525738 -0.809012
v 0.951058 0.000000 0.309013
v 0.951058 0.000000 -0.309013
v 0.000000 0.000000 1.000000
v 0.587786 0.000000 0.809017
v -0.951058 0.000000 0.309013
v -0.587786 0.000000 0.809017
v -0.587786 0.000000 -0.809017
v -0.951058 0.000000 -0.309013
v 0.587786 0.000000 -0.809017
v 0.000000 0.000000 -1.000000
v 0.688189 0.525736 0.499997
v -0.262869 0.525738 0.809012
v -0.850648 0.525736 0.000000
v -0.262869 0.525738 -0.809012
v 0.688189 0.525736 -0.499997
v 0.142885 0.756670 0.439762
v 0.462397 0.756665 0.000000
v -0.374085 0.756669 0.271786
v -0.374085 0.756669 -0.271786
v 0.142885 0.756670 -0.439762
v 0.462397 1.345367 0.000000
v 0.142886 1.345371 -0.439762
v -0.374085 1.345371 -0.271786
v -0.374085 1.345371 0.271786
v 0.142886 1.345371 0.439762
v 0.635852 1.555230 0.000000
v 0.196485 1.555234 -0.604725
v -0.514410 1.555233 -0.373737
v -0.514410 1.555233 0.373737
v 0.196485 1.555234 0.604725
v 0.475466 1.591560 0.000000
v 0.146924 1.591562 -0.452190
v -0.384656 1.591562 -0.279467
v -0.384656 1.591562 0.279467
v 0.146924 1.591562 0.452190
v 0.475466 1.591560 0.000000
v 0.146924 1.591562 -0.452190
v -0.384656 1.591562 -0.279467
v -0.384656 1.591562 0.279467
v 0.146924 1.591562 0.452190
v 0.475465 1.277757 0.000000
v 0.146924 1.277759 -0.452190
v -0.384656 1.277759 -0.279467
v -0.384656 1.277759 0.279467
v 0.146924 1.277759 0.452190
v 0.040993 -0.910905 -0.000000
v 0.659058 -0.438751 0.449045
v -0.195082 -0.438751 0.726577
v -0.722975 -0.438747 -0.000000
v -0.195082 -0.438751 -0.726577
v 0.659058 -0.438751 -0.449045
v -0.097767 -0.783342 0.427068
v 0.404280 -0.783342 0.263940
v 0.265521 -0.505816 0.691012
v 0.767569 -0.505815 -0.000000
v 0.404280 -0.783342 -0.263940
v -0.408056 -0.783340 -0.000000
v -0.546819 -0.505815 0.427069
v -0.097767 -0.783342 -0.427068
v -0.546819 -0.505815 -0.427069
v 0.265521 -0.505816 -0.691012
v 0.853333 -0.056761 0.263941
v 0.853333 -0.056761 -0.263941
v 0.040993 -0.056761 0.854144
v 0.543047 -0.056761 0.691017
v -0.771347 -0.056761 0.263941
v -0.461060 -0.056761 0.691017
v -0.461060 -0.056761 -0.691017
v -0.771347 -0.056761 -0.263941
v 0.543047 -0.056761 -0.691017
v 0.040993 -0.056761 -0.854144
v 0.475466 1.663363 0.000000
v 0.146925 1.663365 -0.452190
v -0.384655 1.663365 -0.279467
v -0.384655 1.663365 0.279467
v 0.146925 1.663365 0.452190
v 0.533896 1.785093 0.000000
v 0.164981 1.785096 -0.507760
v -0.431925 1.785096 -0.313810
v -0.431925 1.785096 0.313810
v 0.164981 1.785096 0.507760
v 0.475465 1.277757 0.000000
v 0.146924 1.277759 -0.452190
v -0.384656 1.277759 -0.279467
v -0.384656 1.277759 0.279467
v 0.146924 1.277759 0.452190
v 0.475466 1.343865 0.000000
v 0.146925 1.343867 -0.452190
v -0.384655 1.343867 -0.279467
v -0.384655 1.343867 0.279467
v 0.146925 1.343867 0.452190
vn 0.1024 -0.9435 0.3151
vn 0.7002 -0.6617 0.2680
vn -0.2680 -0.9435 0.1947
vn -0.2680 -0.9435 -0.1947
vn 0.1024 -0.9435 -0.3151
vn 0.9050 -0.3304 0.2680
vn 0.0247 -0.3304 0.9435
vn -0.8897 -0.3304 0.3151
vn -0.5746 -0.3304 -0.7488
vn 0.5346 -0.3304 -0.7779
vn 0.8026 -0.1256 0.5831
vn -0.3066 -0.1256 0.9435
vn -0.9921 -0.1256 -0.0000
vn -0.3066 -0.1256 -0.9435
vn 0.8026 -0.1256 -0.5831
vn 0.2852 0.8079 0.5158
vn -0.4024 0.8079 0.4306
vn -0.5339 0.8079 -0.2497
vn 0.0725 0.8079 -0.5849
vn 0.5787 0.8079 -0.1118
vn 0.3528 0.8999 -0.2563
vn 0.2852 0.8079 -0.5158
vn -0.1348 0.8999 -0.4147
vn -0.4024 0.8079 -0.4306
vn -0.4361 0.8999 -0.0000
vn -0.5339 0.8079 0.2497
vn -0.1348 0.8999 0.4147
vn 0.0725 0.8079 0.5849
vn 0.3528 0.8999 0.2563
vn 0.5787 0.8079 0.1118
vn 0.8897 0.3304 -0.3151
vn 0.7947 0.1876 -0.5773
vn 0.5746 0.3304 -0.7488
vn -0.0247 0.3304 -0.9435
vn -0.3035 0.1876 -0.9342
vn -0.5346 0.3304 -0.7779
vn -0.9050 0.3304 -0.2680
vn -0.9822 0.1876 -0.0000
vn -0.9050 0.3304 0.2680
vn -0.5346 0.3304 0.7779
vn -0.3035 0.1876 0.9342
vn -0.0247 0.3304 0.9435
vn 0.5746 0.3304 0.7488
vn 0.7947 0.1876 0.5773
vn 0.8897 0.3304 0.3151
vn 0.3066 0.1256 -0.9435
vn 0.3035 -0.1876 -0.9342
vn 0.0247 -0.3304 -0.9435
vn -0.8026 0.1256 -0.5831
vn -0.7947 -0.1876 -0.5773
vn -0.8897 -0.3304 -0.3151
vn -0.8026 0.1256 0.5831
vn -0.7947 -0.1876 0.5773
vn -0.5746 -0.3304 0.7488
vn 0.3066 0.1256 0.9435
vn 0.3035 -0.1876 0.9342
vn 0.5346 -0.3304 0.7779
vn 0.9921 0.1256 -0.0000
vn 0.9822 -0.1876 -0.0000
vn 0.9050 -0.3304 -0.2680
vn 0.4713 -0.6617 -0.5831
vn 0.1876 -0.7947 -0.5773
vn -0.0385 -0.6617 -0.7488
vn -0.4089 -0.6617 -0.6284
vn -0.4911 -0.7947 -0.3568
vn -0.7240 -0.6617 -0.1947
vn -0.7240 -0.6617 0.1947
vn -0.4911 -0.7947 0.3568
vn -0.4089 -0.6617 0.6284
vn 0.7002 -0.6617 -0.2680
vn 0.6071 -0.7947 -0.0000
vn 0.3313 -0.9435 -0.0000
vn -0.0385 -0.6617 0.7488
vn 0.1876 -0.7947 0.5773
vn 0.4713 -0.6617 0.5831
vn -1.0000 -0.0000 -0.0000
vn -0.2569 -0.5558 0.7906
vn 0.8090 -0.0000 -0.5878
vn -0.3090 -0.0000 0.9511
vn -0.3090 -0.0000 -0.9511
vn 0.8090 -0.0000 0.5878
vn 0.2181 0.9630 0.1585
vn -0.2569 -0.5558 -0.7906
vn 0.6725 -0.5558 0.4886
vn -0.8313 -0.5558 -0.0000
vn 0.6725 -0.5558 -0.4886
vn -0.0000 1.0000 -0.0000
vn -0.2696 0.9630 -0.0000
vn 0.2181 0.9630 -0.1585
vn -0.0833 0.9630 0.2564
vn -0.0833 0.9630 -0.2564
vn -0.2881 -0.3620 0.8866
vn -0.2881 -0.3620 -0.8866
vn 0.7541 -0.3620 0.5479
vn -0.9322 -0.3620 -0.0000
vn 0.7541 -0.3620 -0.5479
vn -0.0000 -1.0000 -0.0000
vt 0.114254 0.423172
vt 0.026972 0.423172
vt 0.087282 0.340162
vt 0.172794 0.725282
vt 0.227620 0.760350
vt 0.138163 0.801668
vt 0.184867 0.371869
vt 0.184866 0.474475
vt 0.087282 0.506181
vt 0.082874 0.728667
vt 0.719365 0.150766
vt 0.700546 0.233234
vt 0.630176 0.167302
vt 0.785670 0.025684
vt 0.767911 0.081494
vt 0.710783 -0.000000
vt 0.415424 0.342801
vt 0.426098 0.430084
vt 0.337523 0.378781
vt 0.617647 0.396286
vt 0.569102 0.327015
vt 0.665202 0.319042
vt 0.138162 0.642229
vt 0.671810 0.073522
vt 0.415422 0.517366
vt 0.344054 0.564397
vt 0.337522 0.481388
vt 0.344055 0.295770
vt 0.706836 0.412823
vt 0.281612 0.091430
vt 0.281612 0.181226
vt 0.215305 0.118780
vt 0.132907 0.000000
vt 0.218307 0.027748
vt 0.138429 0.071513
vt 0.000000 0.113172
vt 0.052780 0.040527
vt 0.069719 0.130020
vt 0.066562 0.274548
vt 0.013783 0.201902
vt 0.104130 0.213447
vt 0.240609 0.261111
vt 0.155209 0.288859
vt 0.194108 0.206501
vt 0.763964 0.331329
vt 0.785669 0.417190
vt 0.714839 0.257640
vt 0.255479 0.347074
vt 0.275843 0.288859
vt 0.264730 0.430085
vt 0.255479 0.513094
vt 0.275842 0.571309
vt 0.573049 0.085808
vt 0.622174 0.012120
vt 0.551343 0.171668
vt 0.036595 0.638165
vt 0.094061 0.571311
vt -0.000000 0.718367
vt 0.626230 0.245520
vt 0.551343 0.271204
vt 0.181342 0.571309
vt 0.601785 0.245520
vt 0.227620 0.661812
vt 0.036597 0.797604
vt 0.735227 0.491040
vt 0.636466 0.478753
vt 0.551343 0.425721
vt 0.157894 0.557485
vt 0.234387 0.510455
vt 0.487371 0.378781
vt 0.255479 0.423172
vt 0.487371 0.481387
vt 0.157895 0.288859
vt 0.234388 0.335890
vt 0.785670 0.180202
vt 0.000000 0.506182
vt -0.000000 0.340162
vt 0.926332 0.632946
vt 0.823425 0.559937
vt 0.920587 0.559937
vt 0.562900 0.838585
vt 0.670072 0.801668
vt 0.653145 0.838585
vt 0.438803 0.935871
vt 0.529048 0.838585
vt 0.529048 0.935871
vt 0.562901 0.935871
vt 0.653146 0.935871
vt 0.926332 0.486927
vt 0.829170 0.486927
vt 0.777243 0.933475
vt 0.686998 0.835784
vt 0.777243 0.835783
vt 0.636802 0.609658
vt 0.615260 0.718104
vt 0.615260 0.625309
vt 0.785670 0.559937
vt 0.793569 0.459539
vt 0.794170 0.801668
vt 0.829170 0.632946
vt 0.421876 0.801669
vt 0.545974 0.801669
vt 0.926332 0.312598
vt 0.518779 0.571309
vt 0.472463 0.671705
vt 0.445836 0.671705
vt 0.518777 0.772102
vt 0.636802 0.733756
vt 0.527007 0.596633
vt 0.527006 0.746779
vt 0.325209 0.686032
vt 0.250658 0.686032
vt 0.302171 0.615130
vt 0.358732 0.872570
vt 0.303143 0.872571
vt 0.348495 0.801668
vt 0.385523 0.642211
vt 0.385522 0.729852
vt 0.302171 0.756934
vt 0.421876 0.828750
vt 0.703592 0.691059
vt 0.712516 0.762756
vt 0.636802 0.730328
vt 0.720374 0.571309
vt 0.722380 0.621294
vt 0.652763 0.572512
vt 0.847124 0.419369
vt 0.838006 0.344816
vt 0.913662 0.388637
vt 0.847483 0.119750
vt 0.828694 0.049985
vt 0.908176 0.071590
vt 0.421876 0.916391
vt 0.642899 0.642900
vt 0.847123 0.270265
vt 0.908082 0.230093
vt 0.913661 0.300995
vt 0.908083 0.459539
vt 0.914272 0.159019
vt 0.898312 0.001203
vt 0.830701 -0.000000
vt 0.636802 0.801403
vt 0.348494 0.943473
vt 0.914272 0.230093
vt 0.838559 0.191446
vt 0.785670 0.124060
vt 0.362484 0.800755
vt 0.427820 0.760584
vt 0.785670 0.388637
vt 0.445836 0.686032
vt 0.785670 0.300997
vt 0.362485 0.571309
vt 0.427821 0.611480
vt 0.765405 0.695369
vt 0.227620 0.756934
vt 0.227620 0.615130
vt 0.281612 0.185626
vt 0.499828 0.027082
vt 0.551342 0.185626
vt 0.979130 0.109901
vt 1.000000 0.208398
vt 0.979130 0.202697
vt 0.852808 0.885967
vt 0.794170 0.961040
vt 0.800077 0.885967
vt 0.946293 0.306896
vt 0.999312 0.214101
vt 0.999312 0.306897
vt 0.061245 0.970265
vt 0.061247 0.801668
vt 0.160346 0.833868
vt 0.846901 0.961040
vt 0.873950 0.885967
vt 0.867317 0.970265
vt 0.926332 0.208398
vt 0.946293 0.214100
vt 0.846901 0.810894
vt 0.979130 0.098498
vt 1.000000 0.000000
vt 1.000000 0.104200
vt 0.794170 0.810894
vt 0.926332 0.109901
vt 0.926332 0.005702
vt 0.979130 0.005702
vt 0.248600 0.801669
vt 0.248599 0.951814
vt 0.160346 0.923138
vt 0.545974 0.801668
vt 0.438802 0.838585
vt 0.686998 0.933475
vt 0.670072 0.801668
vt 0.793569 0.660333
vt 0.499829 0.256528
vt 0.416478 0.283611
vt 0.333126 0.256529
vt 0.281612 0.097985
vt 0.333125 0.027083
vt 0.416477 -0.000000
vt 0.551343 0.097985
vt 0.160346 0.938068
vt -0.000000 0.885966
vt 0.867317 0.801668
vt 0.926332 0.202697
vt 0.926332 0.098498
vt 0.160346 0.830343
vt 0.303143 0.876742
s 0
usemtl Material
f 1/1/1 13/2/1 12/3/1
f 2/4/2 13/5/2 15/6/2
f 1/1/3 12/3/3 17/7/3
f 1/1/4 17/7/4 19/8/4
f 1/1/5 19/8/5 16/9/5
f 2/4/6 15/6/6 22/10/6
f 3/11/7 14/12/7 24/13/7
f 4/14/8 18/15/8 26/16/8
f 5/17/9 20/18/9 28/19/9
f 6/20/10 21/21/10 30/22/10
f 2/4/11 22/10/11 25/23/11
f 3/11/12 24/13/12 27/24/12
f 4/25/13 26/26/13 29/27/13
f 5/17/14 28/19/14 31/28/14
f 6/20/15 30/22/15 23/29/15
f 7/30/16 32/31/16 37/32/16
f 8/33/17 33/34/17 39/35/17
f 9/36/18 34/37/18 40/38/18
f 10/39/19 35/40/19 41/41/19
f 11/42/20 36/43/20 38/44/20
f 38/44/21 36/43/21 41/41/21
f 36/43/22 10/39/22 41/41/22
f 41/41/23 35/40/23 40/38/23
f 35/40/24 9/36/24 40/38/24
f 40/38/25 34/37/25 39/35/25
f 34/37/26 8/33/26 39/35/26
f 39/35/27 33/34/27 37/32/27
f 33/34/28 7/30/28 37/32/28
f 37/32/29 32/31/29 38/44/29
f 32/31/30 11/42/30 38/44/30
f 23/29/31 36/45/31 11/46/31
f 23/29/32 30/22/32 36/45/32
f 30/22/33 10/47/33 36/45/33
f 31/28/34 35/48/34 10/49/34
f 31/28/35 28/19/35 35/48/35
f 28/19/36 9/50/36 35/48/36
f 29/27/37 34/51/37 9/50/37
f 29/27/38 26/26/38 34/51/38
f 26/26/39 8/52/39 34/51/39
f 27/24/40 33/53/40 8/54/40
f 27/24/41 24/13/41 33/53/41
f 24/13/42 7/55/42 33/53/42
f 25/23/43 32/56/43 7/57/43
f 25/23/44 22/10/44 32/56/44
f 22/10/45 11/58/45 32/56/45
f 30/22/46 31/59/46 10/47/46
f 30/22/47 21/21/47 31/59/47
f 21/21/48 5/60/48 31/59/48
f 28/19/49 29/27/49 9/50/49
f 28/19/50 20/18/50 29/27/50
f 20/18/51 4/25/51 29/27/51
f 26/16/52 27/24/52 8/54/52
f 26/16/53 18/15/53 27/24/53
f 18/15/54 3/11/54 27/24/54
f 24/61/55 25/23/55 7/57/55
f 24/13/56 14/12/56 25/62/56
f 14/63/57 2/4/57 25/23/57
f 22/10/58 23/64/58 11/58/58
f 22/65/59 15/66/59 23/29/59
f 15/66/60 6/20/60 23/29/60
f 16/67/61 21/21/61 6/20/61
f 16/9/62 19/8/62 21/68/62
f 19/8/63 5/69/63 21/68/63
f 19/70/64 20/18/64 5/17/64
f 19/8/65 17/7/65 20/71/65
f 17/72/66 4/25/66 20/18/66
f 17/7/67 18/73/67 4/74/67
f 17/7/68 12/3/68 18/73/68
f 12/75/69 3/11/69 18/15/69
f 15/66/70 16/67/70 6/20/70
f 15/76/71 13/2/71 16/9/71
f 13/2/72 1/1/72 16/9/72
f 12/75/73 14/12/73 3/11/73
f 12/3/74 13/2/74 14/77/74
f 13/5/75 2/4/75 14/63/75
f 39/78/76 44/79/76 40/80/76
f 46/81/77 50/82/77 45/83/77
f 41/84/78 42/85/78 38/86/78
f 37/87/79 45/83/79 39/88/79
f 41/89/80 44/79/80 43/90/80
f 37/91/81 42/92/81 46/93/81
f 51/94/82 52/95/82 56/96/82
f 43/90/83 49/97/83 48/98/83
f 42/92/84 51/99/84 46/93/84
f 45/100/85 49/97/85 44/79/85
f 42/85/86 48/101/86 47/102/86
f 55/103/87 61/103/87 60/103/87
f 50/104/88 54/105/88 49/106/88
f 48/107/89 52/95/89 47/108/89
f 51/94/90 55/109/90 50/104/90
f 49/106/91 53/110/91 48/107/91
f 53/103/87 59/103/87 58/103/87
f 56/103/87 57/103/87 61/103/87
f 54/103/87 60/103/87 59/103/87
f 52/103/87 58/103/87 57/103/87
f 39/78/76 45/100/76 44/79/76
f 46/81/77 51/188/77 50/82/77
f 41/84/78 43/189/78 42/85/78
f 37/87/79 46/81/79 45/83/79
f 41/89/80 40/80/80 44/79/80
f 37/91/81 38/190/81 42/92/81
f 51/94/82 47/108/82 52/95/82
f 43/90/83 44/79/83 49/97/83
f 42/92/84 47/191/84 51/99/84
f 45/100/85 50/192/85 49/97/85
f 42/85/86 43/189/86 48/101/86
f 55/103/87 56/103/87 61/103/87
f 50/104/88 55/109/88 54/105/88
f 48/107/89 53/110/89 52/95/89
f 51/94/90 56/96/90 55/109/90
f 49/106/91 54/105/91 53/110/91
f 53/103/87 54/103/87 59/103/87
f 56/103/87 52/103/87 57/103/87
f 54/103/87 55/103/87 60/103/87
f 52/103/87 53/103/87 58/103/87
usemtl Material.001
f 67/111/1 74/112/1 73/113/1
f 68/114/2 74/115/2 76/116/2
f 67/111/3 73/113/3 78/117/3
f 67/111/4 78/117/4 80/118/4
f 67/111/5 80/118/5 77/119/5
f 68/114/6 76/116/6 83/120/6
f 69/121/7 75/122/7 85/123/7
f 70/124/8 79/125/8 87/126/8
f 71/127/9 81/128/9 89/129/9
f 72/130/10 82/131/10 91/132/10
f 68/114/11 83/120/11 86/133/11
f 69/121/12 85/123/12 88/134/12
f 70/135/13 87/136/13 90/137/13
f 71/127/14 89/129/14 92/138/14
f 72/130/15 91/132/15 84/139/15
f 91/132/47 82/131/47 92/140/47
f 82/131/48 71/141/48 92/140/48
f 89/129/50 81/128/50 90/137/50
f 81/128/51 70/135/51 90/137/51
f 87/126/53 79/125/53 88/134/53
f 79/125/54 69/121/54 88/134/54
f 85/123/56 75/122/56 86/142/56
f 75/143/57 68/114/57 86/133/57
f 83/144/59 76/145/59 84/139/59
f 76/145/60 72/130/60 84/139/60
f 77/146/61 82/131/61 72/130/61
f 77/119/62 80/118/62 82/147/62
f 80/118/63 71/148/63 82/147/63
f 80/149/64 81/128/64 71/127/64
f 80/118/65 78/117/65 81/150/65
f 78/151/66 70/135/66 81/128/66
f 78/117/67 79/152/67 70/153/67
f 78/117/68 73/113/68 79/152/68
f 73/154/69 69/121/69 79/125/69
f 76/145/70 77/146/70 72/130/70
f 76/155/71 74/112/71 77/119/71
f 74/112/72 67/111/72 77/119/72
f 73/154/73 75/122/73 69/121/73
f 73/113/74 74/112/74 75/156/74
f 74/115/75 68/114/75 75/143/75
f 89/157/87 85/158/87 83/159/87
f 83/159/87 84/193/87 91/194/87
f 91/194/87 92/195/87 89/157/87
f 89/157/87 90/196/87 87/197/87
f 87/197/87 88/198/87 85/158/87
f 85/158/87 86/199/87 83/159/87
f 83/159/87 91/194/87 89/157/87
f 89/157/87 87/197/87 85/158/87
usemtl Material.002
f 66/103/87 103/103/87 107/103/87
f 97/160/92 101/161/92 96/162/92
f 62/103/87 104/103/87 103/103/87
f 95/163/80 109/164/80 110/165/80
f 65/103/87 107/103/87 106/103/87
f 93/166/81 112/167/81 108/168/81
f 99/169/87 101/170/87 102/171/87
f 94/172/93 100/173/93 99/174/93
f 93/166/94 102/175/94 97/176/94
f 96/177/95 100/173/95 95/163/95
f 93/178/96 99/179/96 98/180/96
f 95/163/76 111/181/76 96/177/76
f 63/103/87 105/103/87 104/103/87
f 96/162/79 112/182/79 97/160/79
f 64/103/87 106/103/87 105/103/87
f 93/178/78 109/183/78 94/184/78
f 112/185/97 110/186/97 109/187/97
f 66/103/87 62/103/87 103/103/87
f 97/160/92 102/180/92 101/161/92
f 62/103/87 63/103/87 104/103/87
f 95/163/80 94/172/80 109/164/80
f 65/103/87 66/103/87 107/103/87
f 93/166/81 97/176/81 112/167/81
f 102/171/87 98/200/87 99/169/87
f 99/169/87 100/201/87 101/170/87
f 94/172/93 95/163/93 100/173/93
f 93/166/94 98/103/94 102/175/94
f 96/177/95 101/202/95 100/173/95
f 93/178/96 94/184/96 99/179/96
f 95/163/76 110/165/76 111/181/76
f 63/103/87 64/103/87 105/103/87
f 96/162/79 111/203/79 112/182/79
f 64/103/87 65/103/87 106/103/87
f 93/178/78 108/204/78 109/183/78
f 109/187/97 108/205/97 112/185/97
f 112/185/97 111/206/97 110/186/97
