# Blender 5.1.0
# www.blender.org
mtllib playerModel.mtl
o head
v 0.941477 7.588946 0.964312
v 0.941477 7.588946 -0.791547
v 0.941477 5.843683 0.964312
v 0.941477 5.843683 -0.791547
v -0.940017 7.588946 -0.791547
v -0.940017 7.588946 0.964312
v -0.940017 5.843683 -0.791547
v -0.940017 5.843683 0.964312
v 0.823102 3.413971 0.582312
v 0.823102 3.413971 -0.542688
v 0.823102 2.820221 0.582313
v 0.823102 2.820221 -0.542687
v -0.801898 3.413971 -0.542688
v -0.801898 3.413971 0.582312
v -0.801898 2.820221 -0.542687
v -0.801898 2.820221 0.582313
v 0.904445 0.507721 0.787984
v 0.857824 0.507721 -0.398600
v 0.904445 0.038971 0.787984
v 0.857824 0.038971 -0.398600
v 0.045950 0.507721 -0.366701
v 0.092571 0.507721 0.819883
v 0.045950 0.038971 -0.366701
v 0.092571 0.038971 0.819883
v -0.092475 0.507721 0.814976
v -0.045854 0.507721 -0.371609
v -0.092475 0.038971 0.814976
v -0.045854 0.038971 -0.371609
v -0.857728 0.507721 -0.403508
v -0.904349 0.507721 0.783077
v -0.857728 0.038971 -0.403507
v -0.904349 0.038971 0.783077
v 0.799389 2.851471 0.427968
v 0.769944 2.851471 -0.321454
v 0.799389 0.507721 0.427968
v 0.769944 0.507721 -0.321454
v 0.145426 2.851471 -0.296916
v 0.174871 2.851471 0.452505
v 0.145426 0.507721 -0.296916
v 0.174871 0.507721 0.452505
v -0.895310 5.633458 0.334739
v -0.866915 5.636173 -0.391263
v -0.887381 3.544619 0.327236
v -0.858986 3.547335 -0.398767
v -1.471917 5.633961 -0.414934
v -1.500312 5.631246 0.311068
v -1.463988 3.545123 -0.422438
v -1.492383 3.542407 0.303565
v -0.918413 3.544107 0.386614
v -0.885285 3.547276 -0.460389
v -0.915498 2.776139 0.383855
v -0.882370 2.779308 -0.463148
v -1.517512 3.544965 -0.485125
v -1.550640 3.541797 0.361877
v -1.514597 2.776997 -0.487884
v -1.547725 2.773828 0.359119
v 1.535988 3.545290 0.375066
v 1.500682 3.548790 -0.527900
v 1.529954 2.714513 0.372081
v 1.494649 2.718013 -0.530884
v 0.876030 3.553240 -0.503459
v 0.911335 3.549740 0.399506
v 0.869996 2.722462 -0.506443
v 0.905301 2.718962 0.396522
v 1.494499 5.635932 0.315955
v 1.466113 5.638747 -0.410047
v 1.479328 3.547133 0.308451
v 1.450942 3.549948 -0.417551
v 0.861122 5.643055 -0.386376
v 0.889508 5.640241 0.339626
v 0.845952 3.554256 -0.393880
v 0.874338 3.551443 0.332123
v -0.172779 2.851471 0.455283
v -0.143334 2.851471 -0.294138
v -0.172779 0.507721 0.455283
v -0.143334 0.507721 -0.294138
v -0.767852 2.851471 -0.318676
v -0.797297 2.851471 0.430746
v -0.767852 0.507721 -0.318676
v -0.797297 0.507721 0.430746
v 0.447932 5.860843 0.356597
v 0.447932 5.860843 -0.327583
v 0.447932 5.636916 0.356597
v 0.447932 5.636917 -0.327583
v -0.495085 5.860843 -0.327583
v -0.495085 5.860843 0.356597
v -0.495085 5.636917 -0.327583
v -0.495085 5.636916 0.356597
v 0.853635 5.642518 0.620367
v 0.853635 5.642518 -0.566352
v 0.853635 3.410484 0.620367
v 0.853635 3.410484 -0.566352
v -0.855300 5.642518 -0.566352
v -0.855300 5.642518 0.620367
v -0.855300 3.410484 -0.566352
v -0.855300 3.410484 0.620367
vn -0.0000 -0.0000 -1.0000
vn 1.0000 -0.0000 -0.0000
vn -0.0000 -0.0000 1.0000
vn -1.0000 -0.0000 -0.0000
vn -0.0000 1.0000 -0.0000
vn -0.0000 -1.0000 -0.0000
vn -0.0393 -0.0000 -0.9992
vn 0.9992 -0.0000 -0.0393
vn 0.0393 -0.0000 0.9992
vn -0.9992 -0.0000 0.0393
vn 0.0393 -0.0000 -0.9992
vn 0.9992 -0.0000 0.0393
vn -0.0393 -0.0000 0.9992
vn -0.9992 -0.0000 -0.0393
vn 0.0391 0.0037 -0.9992
vn 0.9992 0.0037 0.0391
vn -0.0391 -0.0037 0.9992
vn -0.9992 -0.0037 -0.0391
vn -0.0038 1.0000 0.0036
vn 0.0038 -1.0000 -0.0036
vn -0.0391 0.0039 -0.9992
vn 0.9992 -0.0071 -0.0391
vn 0.0391 -0.0039 0.9992
vn -0.9992 0.0071 0.0391
vn 0.0073 1.0000 0.0036
vn -0.0073 -1.0000 -0.0036
vt 0.149892 0.125407
vt 0.276581 0.243038
vt 0.276638 0.125468
vt 0.394893 0.243038
vt 0.394893 0.125468
vt 0.276970 0.481616
vt 0.150281 0.363985
vt 0.150223 0.481554
vt 0.031580 0.125407
vt 0.149834 0.242976
vt 0.276523 0.361321
vt 0.149777 0.361259
vt 0.276638 0.121403
vt 0.149949 0.003058
vt 0.149892 0.121342
vt 0.894789 0.146296
vt 0.788747 0.107534
vt 0.788742 0.146282
vt 0.715330 0.107525
vt 0.715325 0.146273
vt 0.788733 0.219699
vt 0.894775 0.258461
vt 0.894780 0.219713
vt 0.968204 0.107532
vt 0.894794 0.107548
vt 0.788756 0.034117
vt 0.894803 0.034131
vt 0.125401 0.835805
vt 0.155981 0.888835
vt 0.125391 0.888829
vt 0.156004 0.966323
vt 0.125413 0.966332
vt 0.264068 0.888856
vt 0.233488 0.835826
vt 0.264078 0.835833
vt 0.125379 0.758317
vt 0.155992 0.835811
vt 0.233477 0.888850
vt 0.047906 0.835790
vt 0.426254 0.835800
vt 0.395663 0.888823
vt 0.426254 0.888823
vt 0.395663 0.966319
vt 0.426254 0.966319
vt 0.287577 0.835800
vt 0.318167 0.888823
vt 0.318167 0.835800
vt 0.426253 0.758304
vt 0.395663 0.835800
vt 0.503750 0.835800
vt 0.123842 0.540291
vt 0.164630 0.693244
vt 0.164630 0.540291
vt 0.213574 0.693244
vt 0.213574 0.540291
vt 0.034110 0.540291
vt 0.074897 0.693244
vt 0.074897 0.540291
vt 0.123842 0.693244
vt 0.123842 0.742189
vt 0.164630 0.491347
vt 0.123842 0.491347
vt 0.648670 0.533323
vt 0.689458 0.674039
vt 0.689458 0.533323
vt 0.738402 0.533323
vt 0.738402 0.674039
vt 0.779190 0.674039
vt 0.779190 0.533323
vt 0.599726 0.674039
vt 0.648670 0.674039
vt 0.689458 0.722984
vt 0.648670 0.722984
vt 0.648670 0.484378
vt 0.709213 0.792342
vt 0.666598 0.844083
vt 0.709221 0.844077
vt 0.766323 0.844068
vt 0.766315 0.792333
vt 0.666562 0.952910
vt 0.709202 0.901189
vt 0.666579 0.901175
vt 0.609488 0.792357
vt 0.666591 0.792349
vt 0.666601 0.735239
vt 0.846381 0.843496
vt 0.902348 0.801383
vt 0.846381 0.801383
vt 0.846381 0.740508
vt 0.902348 0.740508
vt 0.846382 0.904371
vt 0.902348 0.946484
vt 0.902348 0.904371
vt 0.902348 0.843496
vt 0.963223 0.801383
vt 0.963223 0.843496
vt 0.785499 0.843475
vt 0.837146 0.533159
vt 0.877934 0.673875
vt 0.877934 0.533159
vt 0.926878 0.673875
vt 0.926878 0.533159
vt 0.967666 0.673875
vt 0.967666 0.533159
vt 0.788202 0.533159
vt 0.837146 0.673875
vt 0.877934 0.722820
vt 0.837146 0.722820
vt 0.877934 0.484214
vt 0.837146 0.484214
vt 0.391995 0.549583
vt 0.432782 0.702535
vt 0.432782 0.549583
vt 0.481727 0.702535
vt 0.481727 0.549583
vt 0.522514 0.702535
vt 0.522514 0.549583
vt 0.343050 0.549583
vt 0.391995 0.702535
vt 0.432782 0.751480
vt 0.391995 0.751480
vt 0.391995 0.500638
vt 0.520207 0.318606
vt 0.400973 0.382132
vt 0.520207 0.382132
vt 0.400973 0.428222
vt 0.520207 0.428222
vt 0.400973 0.491748
vt 0.520207 0.491748
vt 0.400973 0.272516
vt 0.400973 0.318606
vt 0.354883 0.382132
vt 0.354883 0.318606
vt 0.566296 0.318606
vt 0.572603 0.353140
vt 0.663680 0.237937
vt 0.572501 0.238018
vt 0.663609 0.157994
vt 0.572429 0.158075
vt 0.663507 0.042872
vt 0.572327 0.042953
vt 0.572674 0.433083
vt 0.663782 0.353059
vt 0.778802 0.237805
vt 0.778731 0.157882
vt 0.457307 0.158187
vt 0.457379 0.238150
vt 0.277027 0.364047
vt 0.031580 0.242976
vt 0.276696 0.003120
vt 0.788728 0.258447
vt 0.968213 0.146280
vt 0.155969 0.758308
vt 0.047895 0.888814
vt 0.287577 0.888823
vt 0.395663 0.758304
vt 0.503750 0.888823
vt 0.034110 0.693244
vt 0.164630 0.742189
vt 0.599726 0.533323
vt 0.689458 0.484378
vt 0.709185 0.952924
vt 0.609496 0.844092
vt 0.709224 0.735247
vt 0.846382 0.946484
vt 0.785514 0.801362
vt 0.788202 0.673875
vt 0.343050 0.702535
vt 0.432782 0.500638
vt 0.520207 0.272516
vt 0.566296 0.382132
vt 0.663854 0.433002
s 1
usemtl none
f 7/1/1 2/2/1 4/3/1
f 4/3/2 1/4/2 3/5/2
f 3/6/3 6/7/3 8/8/3
f 8/9/4 5/10/4 7/1/4
f 1/11/5 5/10/5 6/12/5
f 4/13/6 8/14/6 7/15/6
f 15/16/1 10/17/1 12/18/1
f 12/18/2 9/19/2 11/20/2
f 11/21/3 14/22/3 16/23/3
f 15/16/4 14/24/4 13/25/4
f 9/26/5 13/25/5 14/27/5
f 12/18/6 16/23/6 15/16/6
f 23/28/7 18/29/7 20/30/7
f 20/30/8 17/31/8 19/32/8
f 19/33/9 22/34/9 24/35/9
f 24/36/10 21/37/10 23/28/10
f 17/38/5 21/37/5 22/34/5
f 20/30/6 24/39/6 23/28/6
f 31/40/11 26/41/11 28/42/11
f 28/42/12 25/43/12 27/44/12
f 32/45/13 25/46/13 30/47/13
f 32/48/14 29/49/14 31/40/14
f 25/46/5 29/49/5 30/47/5
f 28/42/6 32/50/6 31/40/6
f 39/51/7 34/52/7 36/53/7
f 36/53/8 33/54/8 35/55/8
f 35/56/9 38/57/9 40/58/9
f 40/58/10 37/59/10 39/51/10
f 38/60/5 34/52/5 37/59/5
f 39/51/6 35/61/6 40/62/6
f 47/63/15 42/64/15 44/65/15
f 43/66/16 42/64/16 41/67/16
f 43/66/17 46/68/17 48/69/17
f 47/63/18 46/70/18 45/71/18
f 41/72/19 45/71/19 46/73/19
f 44/65/20 48/74/20 47/63/20
f 52/75/15 53/76/15 50/77/15
f 52/75/16 49/78/16 51/79/16
f 56/80/17 49/81/17 54/82/17
f 56/83/18 53/76/18 55/84/18
f 49/81/19 53/76/19 54/82/19
f 52/75/20 56/85/20 55/84/20
f 63/86/21 58/87/21 60/88/21
f 59/89/22 58/87/22 57/90/22
f 64/91/23 57/92/23 62/93/23
f 64/91/24 61/94/24 63/86/24
f 57/95/25 61/94/25 62/96/25
f 60/88/26 64/97/26 63/86/26
f 71/98/21 66/99/21 68/100/21
f 68/100/22 65/101/22 67/102/22
f 67/102/23 70/103/23 72/104/23
f 72/105/24 69/106/24 71/98/24
f 65/107/25 69/106/25 70/108/25
f 71/98/26 67/109/26 72/110/26
f 79/111/11 74/112/11 76/113/11
f 76/113/12 73/114/12 75/115/12
f 75/115/13 78/116/13 80/117/13
f 80/118/14 77/119/14 79/111/14
f 73/120/5 77/119/5 78/121/5
f 76/113/6 80/122/6 79/111/6
f 87/123/1 82/124/1 84/125/1
f 84/125/2 81/126/2 83/127/2
f 83/127/3 86/128/3 88/129/3
f 87/123/4 86/130/4 85/131/4
f 81/132/5 85/131/5 86/133/5
f 84/125/6 88/134/6 87/123/6
f 95/135/1 90/136/1 92/137/1
f 92/137/2 89/138/2 91/139/2
f 91/139/3 94/140/3 96/141/3
f 96/142/4 93/143/4 95/135/4
f 89/138/5 93/144/5 94/145/5
f 92/137/6 96/146/6 95/147/6
f 7/1/1 5/10/1 2/2/1
f 4/3/2 2/2/2 1/4/2
f 3/6/3 1/148/3 6/7/3
f 8/9/4 6/149/4 5/10/4
f 1/11/5 2/2/5 5/10/5
f 4/13/6 3/150/6 8/14/6
f 15/16/1 13/25/1 10/17/1
f 12/18/2 10/17/2 9/19/2
f 11/21/3 9/151/3 14/22/3
f 15/16/4 16/152/4 14/24/4
f 9/26/5 10/17/5 13/25/5
f 12/18/6 11/21/6 16/23/6
f 23/28/7 21/37/7 18/29/7
f 20/30/8 18/29/8 17/31/8
f 19/33/9 17/38/9 22/34/9
f 24/36/10 22/153/10 21/37/10
f 17/38/5 18/29/5 21/37/5
f 20/30/6 19/154/6 24/39/6
f 31/40/11 29/49/11 26/41/11
f 28/42/12 26/41/12 25/43/12
f 32/45/13 27/155/13 25/46/13
f 32/48/14 30/156/14 29/49/14
f 25/46/5 26/41/5 29/49/5
f 28/42/6 27/157/6 32/50/6
f 39/51/7 37/59/7 34/52/7
f 36/53/8 34/52/8 33/54/8
f 35/56/9 33/158/9 38/57/9
f 40/58/10 38/57/10 37/59/10
f 38/60/5 33/159/5 34/52/5
f 39/51/6 36/53/6 35/61/6
f 47/63/15 45/71/15 42/64/15
f 43/66/16 44/65/16 42/64/16
f 43/66/17 41/67/17 46/68/17
f 47/63/18 48/160/18 46/70/18
f 41/72/19 42/64/19 45/71/19
f 44/65/20 43/161/20 48/74/20
f 52/75/15 55/84/15 53/76/15
f 52/75/16 50/77/16 49/78/16
f 56/80/17 51/162/17 49/81/17
f 56/83/18 54/163/18 53/76/18
f 49/81/19 50/77/19 53/76/19
f 52/75/20 51/164/20 56/85/20
f 63/86/21 61/94/21 58/87/21
f 59/89/22 60/88/22 58/87/22
f 64/91/23 59/165/23 57/92/23
f 64/91/24 62/93/24 61/94/24
f 57/95/25 58/87/25 61/94/25
f 60/88/26 59/166/26 64/97/26
f 71/98/21 69/106/21 66/99/21
f 68/100/22 66/99/22 65/101/22
f 67/102/23 65/101/23 70/103/23
f 72/105/24 70/167/24 69/106/24
f 65/107/25 66/99/25 69/106/25
f 71/98/26 68/100/26 67/109/26
f 79/111/11 77/119/11 74/112/11
f 76/113/12 74/112/12 73/114/12
f 75/115/13 73/114/13 78/116/13
f 80/118/14 78/168/14 77/119/14
f 73/120/5 74/112/5 77/119/5
f 76/113/6 75/169/6 80/122/6
f 87/123/1 85/131/1 82/124/1
f 84/125/2 82/124/2 81/126/2
f 83/127/3 81/126/3 86/128/3
f 87/123/4 88/170/4 86/130/4
f 81/132/5 82/124/5 85/131/5
f 84/125/6 83/171/6 88/134/6
f 95/135/1 93/143/1 90/136/1
f 92/137/2 90/136/2 89/138/2
f 91/139/3 89/138/3 94/140/3
f 96/142/4 94/172/4 93/143/4
f 89/138/5 90/136/5 93/144/5
f 92/137/6 91/139/6 96/146/6
