# Blender 5.1.0
# www.blender.org
mtllib Rock2.mtl
o Rock2
v -0.456269 0.100400 0.709670
v -0.648587 1.466468 1.490679
v -0.349142 0.147951 -0.541937
v -0.398929 1.192851 0.116552
v 0.467431 -0.146869 0.475139
v 0.776437 0.793857 0.790986
v 0.620143 0.093887 -0.721277
v 0.558600 1.333706 -0.272443
v 0.062063 0.172329 -0.708575
v -0.068206 1.412502 -0.217128
v -0.038120 -0.395320 1.125604
v 0.124740 1.058479 1.307148
v -0.663501 0.038332 -0.092645
v -0.852623 1.264776 0.707832
v 0.713495 -0.157506 -0.151299
v 0.660203 1.157259 0.020322
v -0.169828 1.641612 0.778626
v -0.356099 0.146797 -0.094679
v -0.636419 0.590197 1.222958
v -0.781788 0.804652 -0.460246
v 0.675603 0.845475 -0.771648
v 0.894117 0.194916 0.574330
v -0.033829 0.348116 1.105371
v -0.227880 0.903526 -0.646269
v 0.645995 0.678791 -0.277020
v -0.606985 0.595798 0.233663
vn -0.9449 0.3070 -0.1137
vn -0.9342 0.2830 -0.2172
vn -0.8695 0.3677 0.3297
vn -0.0209 0.6773 -0.7354
vn -0.0254 0.6818 -0.7311
vn -0.0523 0.7078 -0.7045
vn 0.9828 0.1276 -0.1338
vn 0.9739 0.1798 -0.1383
vn 0.9601 0.2404 -0.1432
vn 0.0723 -0.2891 0.9546
vn 0.0721 -0.2889 0.9546
vn 0.0710 -0.2872 0.9552
vn -0.1651 -0.9534 -0.2527
vn -0.1596 -0.9523 -0.2601
vn -0.0551 -0.9177 -0.3934
vn 0.0256 0.9666 0.2550
vn 0.0247 0.9668 0.2544
vn 0.4934 0.7076 0.5058
vn 0.6267 0.7044 0.3333
vn 0.6322 0.7101 0.3100
vn 0.6453 0.7239 0.2440
vn 0.0702 -0.9963 -0.0487
vn -0.5841 -0.8029 -0.1191
vn 0.3326 -0.9430 -0.0130
vn 0.4723 -0.2657 0.8404
vn 0.4821 -0.2944 0.8252
vn 0.4564 -0.2220 0.8616
vn -0.5681 0.7191 -0.4001
vn -0.4755 0.7819 -0.4032
vn -0.2885 0.8720 -0.3954
vn 0.1252 -0.9921 -0.0006
vn 0.2613 -0.9653 0.0016
vn 0.3328 -0.9430 0.0027
vn 0.3372 0.9412 -0.0226
vn 0.2878 0.9480 0.1361
vn 0.1508 0.8689 0.4714
vn -0.5902 0.7483 -0.3029
vn -0.5141 0.7821 -0.3522
vn -0.6881 0.6887 -0.2287
vn -0.2314 -0.9315 -0.2808
vn -0.2125 -0.9294 -0.3017
vn -0.2776 -0.9333 -0.2279
vn 0.9860 0.1323 -0.1011
vn 0.9912 0.1323 -0.0081
vn 0.9860 0.1309 0.1031
vn -0.9686 -0.2141 0.1262
vn -0.9683 -0.2196 0.1188
vn -0.9450 -0.3257 -0.0300
vn -0.9716 -0.2250 0.0735
vn -0.9768 -0.1562 0.1467
vn -0.9660 -0.0504 0.2534
vn 0.9970 0.0139 -0.0763
vn 0.9993 -0.0200 -0.0318
vn 0.9890 0.0594 -0.1358
vn -0.3465 -0.0735 -0.9352
vn -0.3259 -0.0778 -0.9422
vn -0.3712 -0.0683 -0.9260
vn 0.5219 -0.4182 0.7435
vn 0.6755 -0.2142 0.7055
vn 0.7872 0.0122 0.6165
vn -0.4837 -0.4102 0.7732
vn -0.5009 -0.3845 0.7754
vn -0.6908 0.0237 0.7227
vn 0.9501 -0.2982 -0.0916
vn 0.8994 -0.4369 -0.0117
vn 0.5728 -0.7843 0.2383
vn -0.0876 -0.0135 -0.9961
vn -0.0915 -0.0099 -0.9958
vn -0.0318 -0.0645 -0.9974
vn -0.9404 -0.2537 -0.2263
vn -0.9611 -0.2251 -0.1601
vn -0.7062 -0.3919 -0.5897
vn -0.7755 0.1499 -0.6133
vn 0.0131 0.6421 -0.7665
vn 0.9908 0.0491 -0.1263
vn 0.0732 -0.2905 0.9541
vn -0.2770 -0.9564 -0.0926
vn -0.4725 0.8754 -0.1024
vn 0.6044 0.6806 0.4141
vn -0.7026 -0.7000 -0.1279
vn 0.4962 -0.3379 0.7997
vn -0.7452 0.5508 -0.3760
vn 0.0585 -0.9983 -0.0017
vn 0.3751 0.9110 -0.1713
vn -0.4073 0.8153 -0.4117
vn -0.1372 -0.9144 -0.3808
vn 0.9584 0.1297 -0.2544
vn -0.9567 -0.0971 0.2744
vn -0.9479 -0.3172 -0.0300
vn 0.9968 -0.0712 0.0357
vn -0.3041 -0.0823 -0.9491
vn 0.3168 -0.6070 0.7288
vn -0.1717 -0.7421 0.6479
vn 0.9651 0.0389 -0.2591
vn -0.1355 0.0307 -0.9903
vn -0.9717 -0.0381 0.2333
s 1
usemtl Rock.003
f 26//1 4//2 20//3
f 24//4 8//5 21//6
f 25//7 6//8 22//9
f 12//10 19//11 23//12
f 18//13 5//14 11//15
f 17//16 2//17 12//18
f 17//19 6//20 16//21
f 18//22 1//23 13//24
f 6//25 23//26 22//27
f 4//28 24//29 20//30
f 3//31 18//32 13//33
f 10//34 16//35 8//36
f 4//37 17//38 10//39
f 9//40 15//41 18//42
f 8//43 25//44 21//45
f 19//46 14//47 26//48
f 1//49 26//50 13//51
f 7//52 25//53 15//54
f 3//55 24//56 9//57
f 5//58 23//59 11//60
f 23//61 1//62 11//63
f 15//64 22//65 5//66
f 9//67 21//68 7//69
f 13//70 20//71 3//72
f 26//1 14//73 4//2
f 24//4 10//74 8//5
f 25//7 16//75 6//8
f 12//10 2//76 19//11
f 18//13 15//77 5//14
f 17//16 14//78 2//17
f 17//19 12//79 6//20
f 18//22 11//80 1//23
f 6//25 12//81 23//26
f 4//28 10//82 24//29
f 3//31 9//83 18//32
f 10//34 17//84 16//35
f 4//37 14//85 17//38
f 9//40 7//86 15//41
f 8//43 16//87 25//44
f 19//46 2//88 14//47
f 1//49 19//89 26//50
f 7//52 21//90 25//53
f 3//55 20//91 24//56
f 5//58 22//92 23//59
f 23//61 19//93 1//62
f 15//64 25//94 22//65
f 9//67 24//95 21//68
f 13//70 26//96 20//71
